<svg width="228" height="184" viewBox="0 0 228 184" fill="none" xmlns="http://www.w3.org/2000/svg">
<path d="M91.116 12.2789C97.616 13.2789 82.616 14.2789 80.116 16.7789C77.616 19.2789 72.116 28.2789 68.116 30.7789C64.916 32.7789 51.7826 43.6123 47.616 46.7789C48.616 46.7789 60.116 54.7789 61.116 56.2789C62.116 57.7789 63.616 63.7789 63.616 64.2789C63.616 64.7789 62.616 67.2789 61.116 69.2789C59.616 71.2789 55.616 71.2789 53.116 69.2789C50.616 67.2789 45.616 57.2789 42.116 53.2789C39.358 50.127 32.493 46.393 29.2613 44.8481L37.116 43.7789L47.616 46.7789L59.116 28.7789L66.116 19.7789L70.116 9.77893V0.778927C73.2865 2.23092 76.591 5.16975 80.116 7.27893C84.8761 10.1272 89.6262 12.0497 91.116 12.2789Z" fill="#B0121B"/>
<path d="M104.616 49.7789L106.616 48.2789L98.116 43.2789L90.116 36.7789V40.7789L79.116 59.2789C76.116 63.6123 69.316 73.3789 66.116 77.7789C62.916 82.1789 54.4493 90.6123 50.616 94.2789H53.116L72.616 77.7789C76.7826 74.1123 85.716 66.0789 88.116 63.2789C91.116 59.7789 97.116 53.7789 98.116 52.2789C98.916 51.0789 102.116 50.1123 104.616 49.7789Z" fill="#B0121B"/>
<path d="M30.616 93.7789C30.6222 93.8124 30.6285 93.846 30.6349 93.8799C30.9204 94.6507 34.3596 95.4596 36.116 95.7789L88.116 91.7789L94.116 93.7789C91.4493 93.9456 85.616 94.2789 83.616 94.2789C81.616 94.2789 80.4493 97.2789 80.116 98.7789L79.116 141.279L80.116 176.279C78.9493 177.946 75.416 181.879 74.616 182.279C73.616 182.779 68.116 183.779 67.616 183.279C67.216 182.879 67.4493 126.779 67.616 98.7789L53.616 101.779L40.616 105.279C39.9493 106.279 35.416 110.679 34.616 110.279C33.821 109.881 31.6435 99.2469 30.6349 93.8799C30.6224 93.8461 30.616 93.8125 30.616 93.7789Z" fill="#B0121B"/>
<path d="M111.116 94.2789C110.316 91.8789 95.4493 82.2789 88.116 77.7789C90.9493 82.1123 96.916 91.1789 98.116 92.7789C99.616 94.7789 100.616 98.7789 101.616 101.779C102.616 104.779 103.616 110.279 104.116 111.279C104.516 112.079 106.616 112.946 107.616 113.279C108.783 113.279 111.716 112.179 114.116 107.779C117.116 102.279 112.116 97.2789 111.116 94.2789Z" fill="#B0121B"/>
<path d="M108.616 135.279C106.616 130.479 94.116 122.279 88.116 118.779C89.7826 121.946 93.316 128.479 94.116 129.279C95.116 130.279 97.116 136.779 97.616 138.279C98.116 139.779 97.116 143.779 98.116 147.279C99.116 150.779 102.616 151.779 104.116 151.779C105.316 151.779 108.616 149.446 110.116 148.279C110.449 145.946 110.616 140.079 108.616 135.279Z" fill="#B0121B"/>
<path d="M48.116 117.279L61.116 124.779L59.616 132.779C59.4694 133.561 57.5549 138.771 56.616 141.279L51.116 150.779L43.616 161.279L32.6161 169.279C34.6156 167.825 27.6159 172.579 25.616 173.779C23.7487 174.899 9.60876 179.088 3.40388 181.136C1.99366 181.849 0.986795 182.279 0.615959 182.279C0.109748 182.279 1.30119 181.83 3.40388 181.136C9.60876 179.088 23.7487 174.899 25.616 173.779C27.6159 172.579 34.6156 167.825 32.6161 169.279L43.616 161.279L51.116 150.779L56.616 141.279C57.5549 138.771 59.4694 133.561 59.616 132.779L56.616 124.779V123.279L47.116 131.279L48.616 120.779L48.116 117.279Z" fill="#B0121B"/>
<path d="M48.616 134.779L53.616 129.279L56.616 135.279L51.616 138.779L52.116 141.279L51.116 141.779L40.616 160.279L35.616 163.779L37.616 157.279L43.616 144.779L46.616 141.779L48.616 134.779Z" fill="#B0121B"/>
<path d="M47.616 46.7789L59.116 28.7789L66.116 19.7789L70.116 9.77893V0.778927C70.2794 0.853204 69.9461 0.701146 70.116 0.778927M70.116 0.778927C73.2865 2.23092 76.5911 5.16975 80.116 7.27893C84.8761 10.1272 89.6262 12.0497 91.116 12.2789C97.616 13.2789 82.616 14.2789 80.116 16.7789C77.616 19.2789 72.116 28.2789 68.116 30.7789C64.916 32.7789 51.7826 43.6123 47.616 46.7789M29.2613 44.8481L37.116 43.7789C42.716 45.3789 46.4493 46.4456 47.616 46.7789C48.616 46.7789 60.116 54.7789 61.116 56.2789C62.116 57.7789 63.616 63.7789 63.616 64.2789C63.616 64.7789 62.616 67.2789 61.116 69.2789C59.616 71.2789 55.616 71.2789 53.116 69.2789C50.616 67.2789 45.616 57.2789 42.116 53.2789C39.358 50.127 32.493 46.393 29.2613 44.8481C29.212 44.8245 29.1635 44.8015 29.116 44.7789M59.616 132.779L61.116 124.779L48.116 117.279L48.616 120.779L47.116 131.279L56.616 123.279V124.779L59.616 132.779ZM59.616 132.779C59.4694 133.561 57.5549 138.771 56.616 141.279L51.116 150.779L43.616 161.279L32.616 169.279C34.616 167.824 27.616 172.579 25.616 173.779C23.116 175.279 -1.38404 182.279 0.615959 182.279C2.61596 182.279 23.116 169.779 25.616 167.779C27.616 166.179 32.7826 160.446 35.116 157.779L47.116 131.779M90.116 36.7789V40.7789L79.116 59.2789C76.116 63.6123 69.316 73.3789 66.116 77.7789C62.916 82.1789 54.4493 90.6123 50.616 94.2789H53.116L72.616 77.7789C76.7826 74.1123 85.716 66.0789 88.116 63.2789C91.116 59.7789 97.116 53.7789 98.116 52.2789C98.916 51.0789 102.116 50.1123 104.616 49.7789L106.616 48.2789L98.116 43.2789L90.116 36.7789ZM30.616 93.7789C31.616 99.1123 33.816 109.879 34.616 110.279C35.416 110.679 39.9493 106.279 40.616 105.279L53.616 101.779L67.616 98.7789C67.4493 126.779 67.216 182.879 67.616 183.279C68.116 183.779 73.616 182.779 74.616 182.279C75.416 181.879 78.9493 177.946 80.116 176.279L79.116 141.279L80.116 98.7789C80.4493 97.2789 81.616 94.2789 83.616 94.2789C85.616 94.2789 91.4493 93.9456 94.116 93.7789L88.116 91.7789L36.116 95.7789C34.2826 95.4456 30.616 94.5789 30.616 93.7789ZM88.116 77.7789C95.4493 82.2789 110.316 91.8789 111.116 94.2789C112.116 97.2789 117.116 102.279 114.116 107.779C111.716 112.179 108.783 113.279 107.616 113.279C106.616 112.946 104.516 112.079 104.116 111.279C103.616 110.279 102.616 104.779 101.616 101.779C100.616 98.7789 99.616 94.7789 98.116 92.7789C96.916 91.1789 90.9493 82.1123 88.116 77.7789ZM88.116 118.779C94.116 122.279 106.616 130.479 108.616 135.279C110.616 140.079 110.449 145.946 110.116 148.279C108.616 149.446 105.316 151.779 104.116 151.779C102.616 151.779 99.116 150.779 98.116 147.279C97.116 143.779 98.116 139.779 97.616 138.279C97.116 136.779 95.116 130.279 94.116 129.279C93.316 128.479 89.7826 121.946 88.116 118.779ZM53.616 129.279L48.616 134.779L46.616 141.779L43.616 144.779L37.616 157.279L35.616 163.779L40.616 160.279L51.116 141.779L52.116 141.279L51.616 138.779L56.616 135.279L53.616 129.279Z" stroke="#B0121B"/>
<path d="M142.116 51.8954C137.316 51.8954 128.116 53.8954 124.116 54.8954L121.116 51.8954C120.116 50.8954 118.716 48.8954 121.116 48.8954H139.116H162.116C167.283 48.8954 185.509 50.0276 188.198 48.8954C197.698 44.8954 195.698 38.8954 197.698 37.3954C199.298 36.1954 203.616 44.5621 208.616 48.8954L215.116 51.8954L178.116 51.8954C169.616 51.8954 167.616 54.8954 166.116 57.3954C164.916 59.3954 165.616 97.2288 166.116 115.895V174.395C166.783 175.395 168.716 177.395 171.116 177.395H193.116L204.616 172.895C207.616 169.562 207.416 165.495 208.616 163.895C209.816 162.295 215.116 174.395 226.116 179.395C208.616 182.895 157.416 179.395 150.616 179.395C143.816 179.395 114.116 181.729 110.616 182.895L102.616 175.895C104.283 176.062 109.216 176.595 115.616 177.395C123.616 178.395 137.116 177.395 144.616 177.395C150.616 177.395 153.783 175.395 154.616 174.395V76.8954C154.616 60.8954 154.616 59.8954 152.616 57.3954C150.616 54.8954 148.116 51.8954 142.116 51.8954Z" fill="#B0121B"/>
<path d="M118.116 48.8954L121.116 51.8954M121.116 51.8954L124.116 54.8954C128.116 53.8954 137.316 51.8954 142.116 51.8954C148.116 51.8954 150.616 54.8954 152.616 57.3954C154.616 59.8954 154.616 60.8954 154.616 76.8954C154.616 89.6954 154.616 147.229 154.616 174.395C153.783 175.395 150.616 177.395 144.616 177.395C137.116 177.395 123.616 178.395 115.616 177.395C109.216 176.595 104.283 176.062 102.616 175.895L110.616 182.895C114.116 181.729 143.816 179.395 150.616 179.395C157.416 179.395 208.616 182.895 226.116 179.395C215.116 174.395 209.816 162.295 208.616 163.895C207.416 165.495 207.616 169.562 204.616 172.895L193.116 177.395C186.783 177.395 173.516 177.395 171.116 177.395C168.716 177.395 166.783 175.395 166.116 174.395V115.895C165.616 97.2288 164.916 59.3954 166.116 57.3954C167.616 54.8954 169.616 51.8954 178.116 51.8954C184.916 51.8954 204.616 51.8954 215.116 51.8954L208.616 48.8954C203.616 44.5621 199.298 36.1954 197.698 37.3954C195.698 38.8954 197.698 44.8954 188.198 48.8954C185.509 50.0276 167.283 48.8954 162.116 48.8954H139.116C134.116 48.8954 123.516 48.8954 121.116 48.8954C118.716 48.8954 120.116 50.8954 121.116 51.8954Z" stroke="#B0121B"/>
<path d="M19.616 174.279C18.116 174.946 18.3159 174.479 31.1159 165.279H32.1159H34.616L19.616 174.279Z" fill="#B0121B" stroke="#B0121B"/>
</svg>
