<svg width="158" height="28" viewBox="0 0 158 28" fill="none" xmlns="http://www.w3.org/2000/svg">
<path d="M43.5 3.60989H50.5L51.5 2.60989L53 4.10989L49 4.60989V11.1099L51.5 10.1099L52.5 11.6099H49V19.6099C49 20.4099 51.6667 19.2766 53 18.6099L44 23.6099L43 21.6099L47.5 20.1099V11.6099V4.10989H43.5V3.60989Z" fill="#1A1A1A"/>
<path d="M67 5.10989C68 4.60989 67.5 2.10989 68.5 3.10989L70.5 5.10989L65.5 5.28843C64.483 5.33288 63.0584 5.33888 61.5 5.32226V5.10989H60V0.609894L62.5 1.10989C62.5 1.27656 62.4 1.70989 62 2.10989C61.6 2.50989 61.5 4.27656 61.5 5.10989V5.32226C63.0584 5.33888 64.483 5.33288 65.5 5.28843C66.2839 5.25418 66.8256 5.19708 67 5.10989Z" fill="#1A1A1A"/>
<path d="M59 5.60989C59.4 5.60989 60.5 6.27656 61 6.60989C60.1898 7.65164 58.8168 9.46509 58.0535 10.6099H66C63.3333 10.7766 57.7 11.3099 56.5 12.1099C55.3 12.9099 54.6667 13.4432 54.5 13.6099L53.5 10.6099H57.8325C58.1693 9.3928 58.6843 7.37264 59 6.10989V5.60989Z" fill="#1A1A1A"/>
<path d="M69 13.6099C70 13.6099 69 12.6099 68.5 10.6099L64 7.60989L65.5 9.60989L67 11.6099C67.3333 12.2766 68.2 13.6099 69 13.6099Z" fill="#1A1A1A"/>
<path d="M54.5 22.1099C55.3 20.9099 55.5 16.6099 55.5 14.6099L57.5 15.1099L56.5 15.6099V20.1099C56.5 21.1099 55 23.6099 55 24.1099C55 24.4859 51.6075 25.9927 50.137 26.7171C49.8304 26.9632 49.6024 27.1099 49.5 27.1099C49.376 27.1099 49.6519 26.9561 50.137 26.7171C51.3282 25.7608 53.7047 23.3028 54.5 22.1099Z" fill="#1A1A1A"/>
<path d="M62 14.6099H59.5L59 27.1099C59.5 27.1099 60.6 27.0099 61 26.6099C61.5 26.1099 61 17.6099 61 16.6099C61 15.8099 61.6667 14.9432 62 14.6099Z" fill="#1A1A1A"/>
<path d="M64.5 26.1099V14.6099H66.5L66 15.1099V25.6099H68C68.8 25.6099 70 22.2766 70.5 20.6099V24.1099C70.5 25.3099 70.8333 25.9432 71 26.1099L66 27.1099L64.5 26.1099Z" fill="#1A1A1A"/>
<path d="M47.5 11.6099V20.1099L43 21.6099L44 23.6099L53 18.6099C51.6667 19.2766 49 20.4099 49 19.6099C49 18.8099 49 13.9432 49 11.6099H52.5L51.5 10.1099L49 11.1099V4.60989L53 4.10989L51.5 2.60989L50.5 3.60989H43.5V4.10989H47.5M53 4.10989H47.5M47.5 4.10989V11.6099M47.5 11.6099H43.5M65.5 5.28843C64.483 5.33288 63.0584 5.33888 61.5 5.32226C58.7487 5.29292 55.5802 5.1931 53.5 5.10989M65.5 5.28843C66.2839 5.25418 66.8256 5.19708 67 5.10989C68 4.60989 67.5 2.10989 68.5 3.10989C69.3 3.90989 70.1667 4.77656 70.5 5.10989L65.5 5.28843ZM61.5 5.10989C61.5 4.27656 61.6 2.50989 62 2.10989C62.4 1.70989 62.5 1.27656 62.5 1.10989L60 0.609894V5.10989H61.5ZM61.5 5.10989V5.32226M59 5.60989C59.4 5.60989 60.5 6.27656 61 6.60989C59.8333 8.10989 57.5 11.2099 57.5 11.6099C57.5 12.0099 58.5 8.10989 59 6.10989V5.60989ZM54.5 13.6099L53.5 10.6099H66C63.3333 10.7766 57.7 11.3099 56.5 12.1099C55.3 12.9099 54.6667 13.4432 54.5 13.6099ZM68.5 10.6099C69 12.6099 70 13.6099 69 13.6099C68.2 13.6099 67.3333 12.2766 67 11.6099L65.5 9.60989L64 7.60989L68.5 10.6099ZM55.5 14.6099C55.5 16.6099 55.3 20.9099 54.5 22.1099C53.5 23.6099 50 27.1099 49.5 27.1099C49 27.1099 55 24.6099 55 24.1099C55 23.6099 56.5 21.1099 56.5 20.1099C56.5 19.3099 56.5 16.7766 56.5 15.6099L57.5 15.1099L55.5 14.6099ZM59.5 14.6099H62C61.6667 14.9432 61 15.8099 61 16.6099C61 17.6099 61.5 26.1099 61 26.6099C60.6 27.0099 59.5 27.1099 59 27.1099L59.5 14.6099ZM64.5 14.6099V26.1099L66 27.1099L71 26.1099C70.8333 25.9432 70.5 25.3099 70.5 24.1099C70.5 22.9099 70.5 21.2766 70.5 20.6099C70 22.2766 68.8 25.6099 68 25.6099C67.2 25.6099 66.3333 25.6099 66 25.6099V15.1099L66.5 14.6099H64.5Z" stroke="#1A1A1A"/>
<path d="M105.5 1.60989C105.9 1.20989 103.667 0.77656 102.5 0.609894V6.10989H90.5L91.5 7.10989H101.5C103.1 7.10989 94.5 15.4432 90 19.6099L97.5 14.6099V23.1099L93 24.6099L94.5 26.6099C98 24.9432 105.2 21.4099 106 20.6099C106.8 19.8099 101.667 21.9432 99 23.1099V13.1099L99.5 12.6099L104 7.60989C104.667 9.94323 106.2 14.9099 107 16.1099C107.8 17.3099 112.333 23.6099 114.5 26.6099C115.833 25.9432 118.2 24.6099 117 24.6099C115.8 24.6099 110.5 18.6099 108 15.6099L112.5 12.2732L114.5 11.6099C114.167 10.7766 113.3 9.20989 112.5 9.60989C111.5 10.1099 108 15.1099 107.5 15.1099C107.1 15.1099 105.333 9.44323 104.5 6.60989H116.5L114.5 4.60989L113 6.10989H104.5L104 2.60989C104.333 2.44323 105.1 2.00989 105.5 1.60989Z" fill="#1A1A1A" stroke="#1A1A1A"/>
<path d="M128 14.6099H157" stroke="#1A1A1A" stroke-linecap="round"/>
<path d="M0.5 14.6099H30" stroke="#1A1A1A" stroke-linecap="round"/>
</svg>
